<?xml version="1.0" encoding="utf-8"?>
<!-- Generator: Adobe Illustrator 15.0.2, SVG Export Plug-In . SVG Version: 6.00 Build 0)  -->
<!DOCTYPE svg PUBLIC "-//W3C//DTD SVG 1.1//EN" "http://www.w3.org/Graphics/SVG/1.1/DTD/svg11.dtd">
<svg version="1.1" id="Ebene_1" xmlns="http://www.w3.org/2000/svg" xmlns:xlink="http://www.w3.org/1999/xlink" x="0px"
     y="0px"
     width="200px" height="200px" viewBox="0 0 200 200" enable-background="new 0 0 200 200" xml:space="preserve">
<g>
	<path fill="#999999" d="M147.1,86.834l-44.472,44.486c-1.054,1.037-2.366,1.563-3.688,1.563c-1.309,0-2.622-0.526-3.675-1.563
		L52.888,88.941c-2.096-2.107-2.096-5.255,0-7.361c2.107-2.108,5.271-2.108,7.374,0l38.678,38.677l40.796-40.785
		c2.107-2.105,5.257-2.105,7.363,0C149.207,81.311,149.207,84.741,147.1,86.834L147.1,86.834z M200,99.993
		C200,155.259,155.259,200,99.992,200C44.743,200,0,155.259,0,99.993C0,44.741,44.743,0,99.992,0C155.259,0,200,44.741,200,99.993
		L200,99.993z M189.477,99.993c0-49.472-40-89.471-89.483-89.471c-49.47,0-89.469,40-89.469,89.471
		c0,49.479,39.999,89.483,89.469,89.483C149.477,189.477,189.477,149.473,189.477,99.993L189.477,99.993z"/>
</g>
</svg>
