<?xml version="1.0" encoding="utf-8"?>
<!-- Generator: Adobe Illustrator 15.0.2, SVG Export Plug-In . SVG Version: 6.00 Build 0)  -->
<!DOCTYPE svg PUBLIC "-//W3C//DTD SVG 1.1//EN" "http://www.w3.org/Graphics/SVG/1.1/DTD/svg11.dtd">
<svg version="1.1" id="Ebene_1" xmlns="http://www.w3.org/2000/svg" xmlns:xlink="http://www.w3.org/1999/xlink" x="0px"
     y="0px"
     width="384.78px" height="81.441px" viewBox="0 0 384.78 81.441" enable-background="new 0 0 384.78 81.441"
     xml:space="preserve">
<g>
	<path fill="#222222" d="M0,48.82V0.792h2.304V46.66h24.122v2.16H0z"/>
    <path fill="#222222" d="M31.363,30.603V0.792h2.304v29.811c0,10.657,5.473,16.922,15.554,16.922
		c10.081,0,15.553-6.265,15.553-16.922V0.792h2.304v29.811c0,11.881-6.193,19.082-17.857,19.082
		C37.556,49.685,31.363,42.412,31.363,30.603z"/>
    <path fill="#222222" d="M76.513,24.842C76.513,10.081,87.17,0,100.492,0c6.769,0,12.457,2.665,16.705,7.561l-1.8,1.584
		c-3.384-4.249-8.929-6.985-14.905-6.985c-12.025,0-21.458,9.145-21.458,22.682c0,13.393,9.433,22.682,21.458,22.682
		c5.976,0,11.521-2.736,14.905-6.985l1.872,1.512c-4.537,5.112-10.009,7.633-16.777,7.633C87.17,49.685,76.513,39.604,76.513,24.842
		z"/>
    <path fill="#222222" d="M124.833,48.82V0.792h2.304V48.82H124.833z"/>
    <path fill="#222222" d="M138.908,48.82V0.792h14.257c14.905,0,23.906,11.233,23.906,24.05c0,12.961-9.001,23.978-23.906,23.978
		H138.908z M174.551,24.842c0-12.025-7.776-21.89-21.386-21.89h-11.953V46.66h11.953C166.774,46.66,174.551,37.011,174.551,24.842z"
    />
    <path fill="#222222" d="M182.272,42.052l5.544-7.777c3.384,3.528,8.64,6.481,15.265,6.481c5.616,0,8.353-2.592,8.353-5.329
		c0-8.497-27.65-2.665-27.65-20.738c0-7.993,6.913-14.617,18.217-14.617c7.633,0,13.97,2.304,18.722,6.696l-5.688,7.489
		c-3.889-3.6-9.072-5.256-13.969-5.256c-4.393,0-6.841,1.944-6.841,4.824c0,7.633,27.578,2.521,27.578,20.45
		c0,8.785-6.265,15.41-19.226,15.41C193.361,49.685,186.737,46.588,182.272,42.052z"/>
    <path fill="#222222" d="M238.513,48.82V9.793h-14.042V0.792h38.308v9.001H248.81V48.82H238.513z"/>
    <path fill="#222222" d="M283.454,48.82V29.163L264.948,0.792h11.665l11.953,19.298l11.81-19.298h11.665l-18.362,28.371V48.82
		H283.454z"/>
    <path fill="#222222" d="M315.57,48.82V0.792h10.226v39.027h20.306v9.001H315.57z"/>
    <path fill="#222222"
          d="M350.793,48.82V0.792h33.987v9.001h-23.762v10.153h23.258v9.001h-23.258v10.873h23.762v9.001H350.793z"/>
    <path fill="#222222" d="M87.196,81.221V69.883h0.969v11.338H87.196z"/>
    <path fill="#222222"
          d="M103.476,81.221l-7.139-9.74v9.74h-0.969V69.883h0.986l7.105,9.604v-9.604h0.969v11.338H103.476z"/>
    <path fill="#222222" d="M114.343,81.221V70.766h-3.706v-0.883h8.397v0.883h-3.706v10.455H114.343z"/>
    <path fill="#222222"
          d="M125.234,81.221V69.883h7.19v0.883h-6.221v4.199h6.102v0.884h-6.102v4.487h6.221v0.885H125.234z"/>
    <path fill="#222222" d="M145.677,81.221l-3.179-4.691H140v4.691h-0.969V69.883h4.233c1.955,0,3.451,1.24,3.451,3.314
		c0,2.057-1.462,3.195-3.145,3.264l3.281,4.76H145.677z M145.694,73.197c0-1.428-1.02-2.432-2.516-2.432H140v4.879h3.179
		C144.674,75.645,145.694,74.625,145.694,73.197z"/>
    <path fill="#222222"
          d="M161.539,81.221l-7.139-9.74v9.74h-0.969V69.883h0.986l7.105,9.604v-9.604h0.969v11.338H161.539z"/>
    <path fill="#222222"
          d="M169.73,81.221V69.883h7.19v0.883h-6.221v4.199h6.102v0.884h-6.102v4.487h6.221v0.885H169.73z"/>
    <path fill="#222222" d="M186.616,81.221V70.766h-3.706v-0.883h8.397v0.883h-3.706v10.455H186.616z"/>
    <path fill="#222222" d="M204.425,81.221l-1.122-2.788h-6l-1.122,2.788h-1.122l4.641-11.338h1.207l4.641,11.338H204.425z
		 M200.294,70.92l-2.669,6.629h5.355L200.294,70.92z"/>
    <path fill="#222222" d="M210.537,75.56c0-3.501,2.566-5.864,5.745-5.864c1.87,0,3.229,0.748,4.267,1.938l-0.731,0.527
		c-0.799-0.952-2.091-1.581-3.535-1.581c-2.669,0-4.726,2.022-4.726,4.98c0,2.924,2.057,4.997,4.726,4.997
		c1.513,0,2.702-0.747,3.331-1.376v-2.72h-4.283v-0.867h5.253v3.961c-1.003,1.121-2.516,1.887-4.301,1.887
		C213.104,81.441,210.537,79.062,210.537,75.56z"/>
    <path fill="#222222" d="M227.5,81.221V69.883h7.19v0.883h-6.222v4.199h6.103v0.884h-6.103v4.487h6.222v0.885H227.5z"/>
    <path fill="#222222"
          d="M249.402,81.221l-7.139-9.74v9.74h-0.969V69.883h0.985l7.105,9.604v-9.604h0.969v11.338H249.402z"/>
    <path fill="#222222" d="M260.27,81.221V70.766h-3.706v-0.883h8.397v0.883h-3.706v10.455H260.27z"/>
    <path fill="#222222" d="M271.162,76.869v-6.986h0.985v6.969c0,2.295,1.207,3.688,3.434,3.688c2.244,0,3.434-1.394,3.434-3.688
		v-6.969h0.986v6.986c0,2.805-1.496,4.555-4.42,4.555C272.675,81.424,271.162,79.656,271.162,76.869z"/>
    <path fill="#222222" d="M293.854,81.221l-3.179-4.691h-2.499v4.691h-0.969V69.883h4.232c1.955,0,3.45,1.24,3.45,3.314
		c0,2.057-1.462,3.195-3.145,3.264l3.281,4.76H293.854z M293.871,73.197c0-1.428-1.02-2.432-2.516-2.432h-3.179v4.879h3.179
		C292.852,75.645,293.871,74.625,293.871,73.197z"/>
</g>
</svg>
